<?xml version="1.0" encoding="utf-8"?>
<!-- Generator: Adobe Illustrator 24.0.3, SVG Export Plug-In . SVG Version: 6.00 Build 0)  -->
<svg version="1.1" id="Layer_1" xmlns="http://www.w3.org/2000/svg" xmlns:xlink="http://www.w3.org/1999/xlink" x="0px" y="0px"
	 viewBox="0 0 1248 700" style="enable-background:new 0 0 1248 700;" xml:space="preserve">
<path d="M1007,694v-13c-32,0-52-18-52-46V266c-31,3-61,5-106,5V171c0-82,40-129,111-129c47,0,81,24,90,85h12V46c-20-12-55-23-97-23
	c-1,0-2,0-3,0C929,8,899,0,864,0c-99,0-165,66-165,161v474c0,30-19,46-51,46v14c19,0,35-3,75-3h209C976,692,988,694,1007,694z
	 M746,148c0-82,42-129,113-129c22,0,40,5,52,11c-70,18-111,75-109,154v86c-15,0-33,1-56,1V148z M0,362c0,194,141,336,336,336
	c194,0,335-142,335-336c0-196-141-339-335-336C141,26,0,168,0,362z M350,675C180,675,54,534,54,342C54,174,167,49,321,49
	c170,0,296,140,296,333C617,550,504,675,350,675z M880,168c10,6,44,40,49,49c6-10,39-44,50-49c-11-7-44-40-50-50
	C924,128,890,161,880,168z M1128,261c-61,0-132,36-132,111c0,52,32,88,106,118c77,34,109,64,109,105c0,54-44,82-98,82
	c-69,0-111-48-114-92h-12v80c32,21,79,35,116,35c76,0,145-40,145-120c0-58-28-91-112-129c-82-38-103-59-103-98c0-46,37-68,82-68
	c52,0,95,18,105,79h12v-80C1208,273,1176,261,1128,261z M802,292v343c0,35-8,46-28,46c-21,0-28-13-28-46V292H802z M849,635V292
	c46-2,60,8,60,37v306c0,36-6,45-28,45C856,680,849,670,849,635z"/>
</svg>
